<svg xmlns="http://www.w3.org/2000/svg" xml:space="preserve" width="48.985" height="48.965" viewBox="0 0 12.961 12.955"><path d="M123.975 101.421h.289v1.325h-.289z" style="fill:#ebff3b;fill-opacity:1;stroke:#ebff3b;stroke-width:.749658;stroke-opacity:1" transform="translate(-122.778 -90.288)"/><path d="M126.744 100.482h.229v2.208h-.229z" style="fill:#ebff3b;fill-opacity:1;stroke:#ebff3b;stroke-width:.861432;stroke-opacity:1" transform="translate(-122.778 -90.288)"/><path d="M129.519 98.477h.144v4.239h-.144z" style="fill:#ebff3b;fill-opacity:1;stroke:#ebff3b;stroke-width:.946492;stroke-opacity:1" transform="translate(-122.778 -90.288)"/><path d="M132.311 97.36h.127v5.383h-.127z" style="fill:#ebff3b;fill-opacity:1;stroke:#ebff3b;stroke-width:1.00012;stroke-opacity:1" transform="translate(-122.778 -90.288)"/><path d="M135.127 95.204h.096v7.524h-.096z" style="fill:#ebff3b;fill-opacity:1;stroke:#ebff3b;stroke-width:1.03056;stroke-opacity:1" transform="translate(-122.778 -90.288)"/><path d="m122.778 98.812 3.296-4.002 1.148 1.005 2.835-3.104 1.174 1.61 2.22-2.727-.903-1.043 2.766-.263-.561 2.795-.748-.815-2.8 3.256-1.148-1.51-2.91 3.135-.883-.846-2.74 3.143z" style="fill:#ebff3b;fill-opacity:1;stroke:none;stroke-width:.925658" transform="translate(-122.778 -90.288)"/></svg>